<svg width="20" height="20" viewBox="0 0 20 20" fill="none" xmlns="http://www.w3.org/2000/svg">
<path fill-rule="evenodd" clip-rule="evenodd" d="M8 4V16H6V4H8Z" fill="#fff"/>
<path fill-rule="evenodd" clip-rule="evenodd" d="M10.5 6H7V4H10.5C12.433 4 14 5.567 14 7.5C14 9.433 12.433 11 10.5 11H7.5V9H10.5C11.3284 9 12 8.32843 12 7.5C12 6.67157 11.3284 6 10.5 6Z" fill="#fff"/>
<path fill-rule="evenodd" clip-rule="evenodd" d="M11.5 11H6V9H11.5C13.433 9 15 10.567 15 12.5C15 14.433 13.433 16 11.5 16H7.14286V14H11.5C12.3284 14 13 13.3284 13 12.5C13 11.6716 12.3284 11 11.5 11Z" fill="#fff"/>
</svg>
