<?xml version="1.0" encoding="utf-8"?>
<!-- Generator: Adobe Illustrator 25.4.1, SVG Export Plug-In . SVG Version: 6.00 Build 0)  -->
<svg version="1.1" id="Camada_1" xmlns="http://www.w3.org/2000/svg" xmlns:xlink="http://www.w3.org/1999/xlink" x="0px" y="0px"
	 viewBox="0 0 25.9 23.6" style="enable-background:new 0 0 25.9 23.6;" xml:space="preserve">
<style type="text/css">
	.st0{fill:#EB713B;}
</style>
<g>
	<path class="st0" d="M4.5,1.7c0,0.6,0,1.2,0,1.8c0,1.1,0.5,1.8,1.6,2.2c1.1,0.4,2.4,0,3.1-0.8c0.3-0.3,0.4-0.7,0.4-1.1
		c0-0.7,0-1.4,0-2.1c2.2,0,4.5,0,6.8,0c0,0.2,0,0.4,0,0.5c0,0.5,0,0.9,0,1.4c0,0.8,0.3,1.4,1,1.8c1.1,0.8,2.6,0.6,3.5-0.3
		c0.4-0.4,0.6-0.8,0.6-1.4c0-0.7,0-1.4,0-2.1c0.7,0,1.3,0,2,0c0.8,0.1,1.4,0.8,1.4,1.6c0,6.2,0,12.4,0,18.7c0,0.9-0.7,1.6-1.6,1.6
		c0,0-0.1,0-0.1,0c-6.8,0-13.5,0-20.3,0c-0.5,0-1-0.2-1.3-0.6c-0.3-0.3-0.4-0.7-0.4-1.1c0-3.4,0-6.8,0-10.2c0-2.8,0-5.5,0-8.3
		c0-1,0.7-1.7,1.7-1.7C3.4,1.7,3.9,1.7,4.5,1.7z M12.9,7.6c-2.8,0-5.6,0-8.5,0c-0.6,0-0.8,0.2-0.8,0.8c0,3.9,0,7.9,0,11.8
		c0,0.6,0.2,0.8,0.8,0.8c5.6,0,11.3,0,16.9,0c0.6,0,0.9-0.2,0.9-0.9c0-3.9,0-7.8,0-11.8c0-0.6-0.2-0.9-0.9-0.9
		C18.6,7.6,15.7,7.6,12.9,7.6z"/>
	<path class="st0" d="M8.7,2.5c0,0.4,0,0.8-0.1,1.2C8.5,4.6,7.7,5.1,6.9,5C6,5,5.4,4.3,5.3,3.4c0-0.6,0-1.2,0-1.8C5.4,0.7,6.1,0,7,0
		c0.9,0,1.7,0.7,1.7,1.6C8.7,1.9,8.7,2.2,8.7,2.5C8.7,2.5,8.7,2.5,8.7,2.5z"/>
	<path class="st0" d="M20.6,2.5c0,0.4,0,0.8-0.1,1.2c-0.2,0.8-0.9,1.4-1.8,1.3c-0.9-0.1-1.5-0.8-1.5-1.7c0-0.6,0-1.2,0-1.7
		c0-0.9,0.8-1.7,1.7-1.7c0.9,0,1.7,0.7,1.7,1.6C20.6,1.9,20.5,2.2,20.6,2.5C20.6,2.5,20.6,2.5,20.6,2.5z"/>
</g>
</svg>
