<svg xmlns="http://www.w3.org/2000/svg" width="28.013" height="36.859" viewBox="0 0 28.013 36.859">
  <g id="Icon_ionic-ios-document" data-name="Icon ionic-ios-document" transform="translate(-7.313 -3.938)">
    <path id="Caminho_6" data-name="Caminho 6" d="M22.352,13.058h8.385A.456.456,0,0,0,31.2,12.6h0a2.727,2.727,0,0,0-.986-2.11L23.182,4.626a2.96,2.96,0,0,0-1.9-.682h0a.68.68,0,0,0-.682.682v6.681A1.75,1.75,0,0,0,22.352,13.058Z" transform="translate(4.127 0.002)" fill="#fff"/>
    <path id="Caminho_7" data-name="Caminho 7" d="M22.333,11.309V3.938H10.261A2.957,2.957,0,0,0,7.312,6.886V37.848A2.957,2.957,0,0,0,10.261,40.8H32.377a2.957,2.957,0,0,0,2.949-2.949V15.456H26.479A4.153,4.153,0,0,1,22.333,11.309Z" transform="translate(0)" fill="#fff"/>
  </g>
</svg>
