<?xml version="1.0" encoding="utf-8"?>
<!-- Generator: Adobe Illustrator 25.2.3, SVG Export Plug-In . SVG Version: 6.00 Build 0)  -->
<svg version="1.1" id="Camada_1" xmlns="http://www.w3.org/2000/svg" xmlns:xlink="http://www.w3.org/1999/xlink" x="0px" y="0px"
	 viewBox="0 0 20 20" style="enable-background:new 0 0 20 20;" xml:space="preserve">
<style type="text/css">
	.st0{fill:#FFFFFF;}
</style>
<g>
	<path class="st0" d="M5.2,4v12h-2V4H5.2z"/>
	<path class="st0" d="M10.2,4v12h-2V4H10.2z"/>
	<path class="st0" d="M10.2,10c0,0.6-0.4,1-1,1h-4c-0.6,0-1-0.4-1-1s0.4-1,1-1h4C9.8,9,10.2,9.4,10.2,10z"/>
	<g>
		<path class="st0" d="M11.1,16l0.3-1.9l1.8-1.7c0.3-0.3,0.5-0.5,0.6-0.6c0.1-0.1,0.3-0.3,0.4-0.5c0.1-0.2,0.2-0.4,0.2-0.5
			c0-0.2-0.1-0.3-0.4-0.3c-0.4,0-1,0.2-1.8,0.7l-0.5-1.7c0.9-0.6,1.9-0.9,2.9-0.9c1.4,0,2.2,0.6,2.2,1.7c0,0.4-0.1,0.9-0.3,1.3
			c-0.2,0.4-0.6,0.9-1.2,1.4l-1.1,1.1h2.3L16.2,16H11.1z"/>
	</g>
</g>
</svg>
