<?xml version="1.0" encoding="utf-8"?>
<!-- Generator: Adobe Illustrator 25.2.3, SVG Export Plug-In . SVG Version: 6.00 Build 0)  -->
<svg version="1.1" id="Camada_1" xmlns="http://www.w3.org/2000/svg" xmlns:xlink="http://www.w3.org/1999/xlink" x="0px" y="0px"
	 viewBox="0 0 20 20" style="enable-background:new 0 0 20 20;" xml:space="preserve">
<style type="text/css">
	.st0{fill:#FFFFFF;}
</style>
<path class="st0" d="M16,16H4c-1.1,0-2-0.9-2-2V6c0-1.1,0.9-2,2-2h12c1.1,0,2,0.9,2,2v8C18,15.1,17.1,16,16,16z M4,6L4,6v8h12V6H4z"
	/>
<polygon class="st0" points="6.6,10 8.5,12.2 10.4,14.3 6.6,14.3 2.7,14.3 4.7,12.2 "/>
<polygon class="st0" points="12.2,7.8 14.9,11 17.5,14.3 12.2,14.3 7,14.3 9.6,11 "/>
<circle class="st0" cx="7.9" cy="8.3" r="1.3"/>
</svg>
