<?xml version="1.0" encoding="utf-8"?>
<!-- Generator: Adobe Illustrator 25.2.3, SVG Export Plug-In . SVG Version: 6.00 Build 0)  -->
<svg version="1.1" id="Camada_1" xmlns="http://www.w3.org/2000/svg" xmlns:xlink="http://www.w3.org/1999/xlink" x="0px" y="0px"
	 viewBox="0 0 20 20" style="enable-background:new 0 0 20 20;" xml:space="preserve">
<style type="text/css">
	.st0{fill:#FFFFFF;}
</style>
<path class="st0" d="M15.6,2.3c-0.9-0.9-2-1.3-3.2-1.3S10,1.5,9.2,2.3L5.7,5.8c-1.4,1.4-1.7,3.4-0.9,5.1l-0.4,0.4
	c-0.9,0.9-1.3,2-1.3,3.2s0.5,2.3,1.3,3.2c0,0,0,0,0,0c0.9,0.9,2,1.3,3.2,1.3s2.3-0.5,3.2-1.3l3.5-3.5c0.9-0.9,1.3-2,1.3-3.2
	c0-0.7-0.2-1.3-0.4-1.9l0.4-0.4C17.4,6.9,17.4,4.1,15.6,2.3z M7.3,7.3l3.5-3.5c0.4-0.4,1-0.7,1.6-0.7c0.6,0,1.2,0.2,1.6,0.7
	c0.9,0.9,0.9,2.4,0,3.3l-0.3,0.3c-0.8-0.6-1.7-0.9-2.7-0.9C9.8,6.5,8.7,7,7.9,7.8L6.6,9.1C6.6,8.4,6.8,7.8,7.3,7.3z M12.2,9
	l-1.6,1.6c-0.7,0.7-1.9,0.8-2.7,0.4l1.6-1.6c0.4-0.4,1-0.7,1.6-0.7C11.5,8.7,11.8,8.8,12.2,9z M13.4,11c0,0.6-0.2,1.2-0.7,1.6
	l-3.5,3.5C8.4,17,6.8,17,6,16.1v0c-0.4-0.4-0.7-1-0.7-1.6c0-0.6,0.2-1.2,0.7-1.6l0.3-0.3c0.8,0.6,1.7,0.9,2.7,0.9
	c1.2,0,2.3-0.5,3.2-1.3l1.2-1.2C13.4,11,13.4,11,13.4,11z"/>
</svg>
