<?xml version="1.0" encoding="utf-8"?>
<!-- Generator: Adobe Illustrator 25.3.1, SVG Export Plug-In . SVG Version: 6.00 Build 0)  -->
<svg version="1.1" id="Camada_1" xmlns="http://www.w3.org/2000/svg" xmlns:xlink="http://www.w3.org/1999/xlink" x="0px" y="0px"
	 viewBox="0 0 20 20" style="enable-background:new 0 0 20 20;" xml:space="preserve">
<style type="text/css">
	.st0{fill:#FFFFFF;}
</style>
<g>
	<path class="st0" d="M10,2.6c2.2,0,4.3,0,6.5,0c0.9,0,1.5,0.5,1.7,1.3c0,0.2,0,0.3,0,0.5c0,3.7,0,7.4,0,11.1c0,1.1-0.7,1.9-1.9,1.9
		c-3.7,0-7.4,0-11,0c-0.6,0-1.2,0-1.8,0c-0.9,0-1.5-0.5-1.7-1.3c0-0.1,0-0.3,0-0.5c0-3.8,0-7.5,0-11.3c0-1.1,0.7-1.8,1.8-1.8
		C5.7,2.6,7.8,2.6,10,2.6z M16.6,4.2c-4.4,0-8.8,0-13.2,0c0,3.8,0,7.7,0,11.5c4.4,0,8.8,0,13.2,0C16.6,11.9,16.6,8.1,16.6,4.2z"/>
	<path class="st0" d="M7.5,6.7c1.9,1.1,3.8,2.2,5.8,3.3c-1.9,1.1-3.8,2.2-5.8,3.3C7.5,11.1,7.5,8.9,7.5,6.7z"/>
</g>
</svg>
